<svg width="32" height="32" viewBox="0 0 32 32" fill="none" xmlns="http://www.w3.org/2000/svg">
<path d="M14.2383 0.337555C12.736 2.49372 14.2281 8.19431 14.5548 10.7792L15.8204 10.4628C15.4684 7.67748 15.798 2.62051 14.2383 0.337555Z" fill="#FF7000"/>
<path d="M18.3521 0.654114L16.1372 10.4629L17.4029 10.7793L19.3013 0.970527L18.3521 0.654114Z" fill="#FF7000"/>
<path d="M9.17592 1.9195L12.6565 11.0955L6.64462 3.81798L5.37897 4.13439L11.3908 12.3611L2.84766 6.98211L2.53125 8.24776L11.0744 13.6268L12.6565 11.0955L14.2385 10.7791L10.4416 1.60309L9.17592 1.9195Z" fill="#FF7000"/>
<path d="M22.4654 1.91962L17.7192 11.0956C19.9267 11.4297 23.9614 3.62758 22.4654 1.91962Z" fill="#FF7000"/>
<path d="M19.3013 12.3611C22.1476 11.761 25.5813 7.3979 27.2116 5.08356C24.5565 4.86113 19.9833 9.9312 19.3013 12.3611Z" fill="#FF7000"/>
<path d="M0.949714 11.0955L0.633301 12.0447C3.30933 13.4492 7.41982 14.7543 10.4421 14.8924C9.62297 12.5368 3.24206 11.5699 0.949714 11.0955Z" fill="#FF7000"/>
<path d="M0 15.5255V16.7912H10.1252V15.5255H0Z" fill="#FF7000"/>
<path d="M21.1992 16.791L31.3244 16.4746V15.8418C29.3155 15.248 21.9548 14.5144 21.1992 16.791Z" fill="#FF7000"/>
<path d="M20.8833 17.4241C21.7046 19.7842 28.0861 20.7472 30.3757 21.221L30.6921 20.9046V20.2718C27.9988 18.8582 23.9249 17.5567 20.8833 17.4241Z" fill="#FF7000"/>
<path d="M20.5664 18.6896L19.9336 19.9552L28.4767 25.3342L28.7932 24.0686L20.5664 18.6896Z" fill="#FF7000"/>
<path d="M4.42969 27.2326L4.7461 27.549L12.34 20.9043C10.3012 19.0308 5.27948 25.4104 4.42969 27.2326Z" fill="#FF7000"/>
<path d="M20.8833 30.7132H22.1489L18.6684 20.9044H18.9848C20.2824 23.4192 23.0503 27.2703 25.6294 28.4983L25.9459 28.1819C24.9225 25.8857 22.4579 22.5955 20.4753 21.0186C19.6299 20.3463 18.0292 20.4981 17.6268 21.6607C16.9124 23.7253 20.2989 28.5777 20.8833 30.7132Z" fill="#FF7000"/>
<path d="M12.34 20.9044C11.4558 23.0283 7.12803 28.5287 8.85947 30.3968L13.6057 21.2208L12.34 20.9044Z" fill="#FF7000"/>
<path d="M13.9219 21.5372L12.3398 31.6624C15.2464 30.8122 13.6353 24.0903 15.8204 22.17C15.8204 24.195 15.5273 31.0213 17.7189 31.6624C17.7175 29.6256 18.1304 23.6525 16.7608 22.1155C16.2057 21.4926 14.6921 21.6208 13.9219 21.5372Z" fill="#FF7000"/>
</svg>
